<?xml version="1.0" encoding="UTF-8" standalone="no"?>
<!-- Created with Inkscape (http://www.inkscape.org/) -->

<svg
   xmlns:dc="http://purl.org/dc/elements/1.1/"
   xmlns:cc="http://creativecommons.org/ns#"
   xmlns:rdf="http://www.w3.org/1999/02/22-rdf-syntax-ns#"
   xmlns:svg="http://www.w3.org/2000/svg"
   xmlns="http://www.w3.org/2000/svg"
   xmlns:xlink="http://www.w3.org/1999/xlink"
   xmlns:sodipodi="http://sodipodi.sourceforge.net/DTD/sodipodi-0.dtd"
   xmlns:inkscape="http://www.inkscape.org/namespaces/inkscape"
   version="1.1"
   id="svg10"
   width="500"
   height="450"
   viewBox="0 0 500 450"
   sodipodi:docname="responsive_small.svg"
   inkscape:version="0.92.2 (5c3e80d, 2017-08-06)">
  <metadata
     id="metadata16">
    <rdf:RDF>
      <cc:Work
         rdf:about="">
        <dc:format>image/svg+xml</dc:format>
        <dc:type
           rdf:resource="http://purl.org/dc/dcmitype/StillImage" />
        <dc:title></dc:title>
      </cc:Work>
    </rdf:RDF>
  </metadata>
  <defs
     id="defs14" />
  <sodipodi:namedview
     pagecolor="#ffffff"
     bordercolor="#666666"
     borderopacity="1"
     objecttolerance="10"
     gridtolerance="10"
     guidetolerance="10"
     inkscape:pageopacity="0"
     inkscape:pageshadow="2"
     inkscape:window-width="1920"
     inkscape:window-height="1001"
     id="namedview12"
     showgrid="false"
     inkscape:zoom="2.539299"
     inkscape:cx="300.14873"
     inkscape:cy="108.57887"
     inkscape:window-x="-9"
     inkscape:window-y="-9"
     inkscape:window-maximized="1"
     inkscape:current-layer="svg10" />
  <image
     sodipodi:absref="D:\Dateien\Informatik\Projekte\Freelancer - (Project X)\images\responsive_small.jpg"
     xlink:href="responsive_small.jpg"
     y="0"
     x="0"
     id="image18"
     style="image-rendering:optimizeQuality"
     preserveAspectRatio="none"
     height="450"
     width="500" />
  <path
     style="fill:#000000"
     d="m 58.071085,394.26242 c -1.885903,-0.96933 -4.360903,-3.0328 -5.5,-4.58549 -2.058052,-2.8053 -2.072697,-3.45344 -2.327308,-103 -0.240089,-93.86905 -0.145638,-100.39284 1.5,-103.60585 0.965923,-1.8859 3.026722,-4.3609 4.579553,-5.5 C 59.096366,175.53689 60.106009,175.5 113,175.5 c 52.89399,0 53.90363,0.0369 56.67667,2.07108 1.55283,1.1391 3.61013,3.6141 4.57178,5.5 1.62973,3.1961 1.74844,10.15081 1.74844,102.42892 0,92.27811 -0.11871,99.23282 -1.74844,102.42892 -0.96165,1.8859 -3.01858,4.3609 -4.57097,5.5 -2.75906,2.02452 -4.00678,2.07698 -55.5,2.3335 -48.655232,0.24239 -52.939299,0.12786 -56.106395,-1.5 z m 60.614465,-7.43673 C 123.84261,381.98088 120.24043,373 113.14014,373 108.35989,373 105,376.24421 105,380.85986 c 0,7.27054 8.39932,10.93198 13.68555,5.96583 z M 166,275.5 V 185 H 113 60 v 90.5 90.5 h 53 53 z m -58.99558,11.83333 c 0.0114,-2.15126 10.77702,-27.76048 11.81547,-28.10663 0.64906,-0.21635 1.1774,-0.0184 1.17409,0.43997 -0.0161,2.22892 -10.70178,27.73593 -11.76841,28.09147 -0.67406,0.22469 -1.22358,0.0335 -1.22115,-0.42481 z M 93.75,277.76506 C 88.9375,275.52607 85,273.29238 85,272.8013 85,272.08148 101.16017,264 102.59957,264 c 0.22024,0 0.40043,0.61069 0.40043,1.35709 0,0.7464 -3.0375,2.71957 -6.75,4.38482 l -6.75,3.02772 6.75,3.12514 c 3.91506,1.81261 6.75,3.75095 6.75,4.61519 0,0.81952 -0.1125,1.45313 -0.25,1.40801 -0.1375,-0.0451 -4.1875,-1.91393 -9,-4.15291 z M 126,280.4001 c 0,-0.85908 2.84179,-2.78828 6.75,-4.58236 l 6.75,-3.09861 -6.75,-3.04351 C 129.0375,268.00168 126,266.03988 126,265.31605 126,264.59222 126.16207,264 126.36015,264 127.7161,264 144,272.15501 144,272.83407 c 0,0.46796 -4.05,2.69559 -9,4.9503 -6.78089,3.08867 -9,3.73362 -9,2.61573 z M 341.47999,380.25 c -1.37637,-10.17466 -5.74945,-23.54589 -9.71738,-29.71212 -9.8007,-15.23044 -10.53726,-24.91126 -2.94817,-38.74894 5.11803,-9.33205 9.62566,-22.21924 11.21257,-32.05643 L 341.2744,272 h 11.30153 11.30152 l 0.64256,4.75 c 1.5815,11.69103 5.46465,22.73442 11.51576,32.75 4.67523,7.73827 5.2571,9.48094 5.73178,17.16657 0.49676,8.04304 -0.62334,12.45974 -4.85009,19.12464 -4.93688,7.78465 -11.63786,29.19087 -11.88257,37.95879 -0.0258,0.92511 -3.00791,1.25 -11.47362,1.25 H 342.12255 Z M 363,352.92146 c 21.08468,-9.53316 21.38458,-38.64417 0.5,-48.53415 -16.81746,-7.96398 -36.42944,5.00339 -36.46827,24.11269 -0.0295,14.50704 11.69924,26.45608 25.96827,26.45608 3.39004,0 7.22633,-0.78054 10,-2.03462 z M 349,336.58544 C 349,334.7551 355.40055,320 356.19453,320 c 0.56949,0 0.71212,0.77239 0.32314,1.75 -0.38297,0.9625 -1.83325,4.7875 -3.22285,8.5 -1.3896,3.7125 -2.9244,6.75 -3.41068,6.75 C 349.39786,337 349,336.81345 349,336.58544 Z m -8.25,-5.74554 c -2.6125,-1.15218 -4.75,-2.43864 -4.75,-2.85881 0,-0.65108 2.00037,-1.61491 9.75,-4.6978 0.6875,-0.2735 1.25,-0.0283 1.25,0.54499 0,0.57325 -1.575,1.61179 -3.5,2.30788 -1.925,0.69609 -3.5,1.59032 -3.5,1.98718 0,0.39685 1.575,1.24135 3.5,1.87666 1.925,0.63531 3.5,1.57021 3.5,2.07755 0,1.3061 -0.87513,1.13281 -6.25,-1.23765 z m 19.25,1.23765 c 0,-0.50734 1.575,-1.44224 3.5,-2.07755 1.925,-0.63531 3.5,-1.47981 3.5,-1.87666 0,-0.39686 -1.575,-1.29109 -3.5,-1.98718 -1.925,-0.69609 -3.5,-1.73463 -3.5,-2.30788 0,-0.57324 0.5625,-0.81849 1.25,-0.54499 7.68767,3.05824 9.75,4.03674 9.75,4.62602 C 371,328.68245 362.49605,333 360.97325,333 360.43796,333 360,332.5849 360,332.07755 Z M 180,321 v -20 h 74.52568 74.52568 l -1.64373,3.25 c -0.90406,1.7875 -2.74032,4.71486 -4.08058,6.50525 -3.47127,4.63709 -5.59185,15.57549 -4.31985,22.28272 0.54604,2.87926 0.9928,5.84859 0.9928,6.59852 C 320,340.77485 308.44128,341 250,341 h -70 z m 71.6,6.6 c 2.64144,-2.64144 3.4,-4.22549 3.4,-7.1 0,-5.23615 -5.26385,-10.5 -10.5,-10.5 -5.23615,0 -10.5,5.26385 -10.5,10.5 0,5.23615 5.26385,10.5 10.5,10.5 2.87451,0 4.45856,-0.75856 7.1,-3.4 z M 345,168.5 V 70 H 245 145 v 50.5 50.5 h -8.02436 -8.02436 l 0.27436,-55.92741 c 0.26869,-54.771355 0.31717,-55.985759 2.34544,-58.750002 1.1391,-1.552423 3.6141,-3.609389 5.5,-4.571034 3.1997,-1.631565 10.41457,-1.748446 107.92892,-1.748446 97.51435,0 104.72922,0.116881 107.92892,1.748446 1.8859,0.961645 4.3609,3.018833 5.5,4.571529 2.05926,2.806971 2.07258,3.416212 2.33477,106.749997 L 361.02739,267 H 353.01369 345 Z m -111,40.90927 c 0,-0.3249 3.68823,-10.2249 8.19606,-22 6.48435,-16.93801 8.57282,-21.40927 10,-21.40927 0.99217,0 1.80394,0.4298 1.80394,0.9551 0,0.75879 -9.59323,26.26985 -15.15258,40.2949 -0.64901,1.63732 -1.8502,2.75 -2.96874,2.75 C 234.84541,210 234,209.73417 234,209.40927 Z m -19.99114,-14.24903 c -7.17988,-3.28235 -12.61778,-6.36806 -12.78899,-7.25706 -0.31962,-1.65966 -0.46137,-1.58025 16.03013,-8.98056 10.33561,-4.63795 10.75,-4.73809 10.75,-2.59797 0,1.86358 -1.63629,2.93779 -10.05175,6.59889 -5.52846,2.40513 -9.69096,4.72287 -9.25,5.15052 0.44096,0.42766 4.85175,2.54845 9.80175,4.71287 6.86657,3.00246 9.07575,4.44233 9.31955,6.07419 0.17575,1.17639 -0.0493,2.10978 -0.5,2.07422 -0.45075,-0.0356 -6.44056,-2.63436 -13.31069,-5.7751 z M 262,199.0278 c 0,-1.41135 1.41203,-2.57964 4.96529,-4.10822 2.73091,-1.1748 7.49874,-3.32789 10.59517,-4.78464 l 5.62988,-2.64863 -10.58025,-4.49316 c -8.85083,-3.75871 -10.58269,-4.85259 -10.59517,-6.69212 -0.0171,-2.51987 -1.32304,-2.91592 16.48508,4.99932 13.93972,6.19583 13.84822,6.73927 -2.34862,13.94965 C 269.04737,198.4125 262.95713,201 262.6175,201 262.27788,201 262,200.11251 262,199.0278 Z"
     id="path3709"
     inkscape:connector-curvature="0" />
</svg>
